<?xml version="1.0" encoding="UTF-8" standalone="no"?><!DOCTYPE svg PUBLIC "-//W3C//DTD SVG 1.1//EN" "http://www.w3.org/Graphics/SVG/1.1/DTD/svg11.dtd"><svg width="100%" height="100%" viewBox="0 0 11304 1160" version="1.1" xmlns="http://www.w3.org/2000/svg" xmlns:xlink="http://www.w3.org/1999/xlink" xml:space="preserve" xmlns:serif="http://www.serif.com/" style="fill-rule:evenodd;clip-rule:evenodd;stroke-linejoin:round;stroke-miterlimit:2;"><g><g><g><rect x="0" y="0" width="1620" height="232" style="fill:#09090b;"/><rect x="0" y="928" width="1620" height="232" style="fill:#09090b;"/><path d="M1501.169,32.744l118.831,199.256l-1501.169,895.256l-118.831,-199.256l1501.169,-895.256Z" style="fill:#09090b;"/></g></g><g><g><rect x="2040" y="928" width="1476" height="232" style="fill:#09090b;"/><rect x="2040" y="0" width="1476" height="232" style="fill:#09090b;"/><rect x="2504" y="464" width="780" height="232" style="fill:#09090b;"/><path d="M2272,1160l-232,0l0,-1160l232,0l0,1160Z" style="fill:#09090b;"/></g></g><path d="M8433.003,1160l819,-1160l283.997,0l-819,1160l-283.997,0Zm-176,-152.963l-711.003,-1007.037l283.997,0l569.004,805.915l-141.999,201.121Z" style="fill:#09090b;"/><path d="M6949,0l819,1160l-283.997,0l-165.212,-234l-807.584,0l160.976,-228l485.632,0l-384.815,-545.037l-711.003,1007.037l-283.997,-0l819,-1160l352,0Z" style="fill:#09090b;"/><path d="M10485,0l819,1160l-283.997,0l-165.212,-234l-807.584,0l160.976,-228l485.632,0l-384.815,-545.037l-711.003,1007.037l-283.997,-0l819,-1160l352,0Z" style="fill:#09090b;"/><path d="M4168,1160l-232,0l0,-1160l1084,-0c234.564,0 425,173.185 425,386.5c0,111.241 -51.788,211.568 -134.616,282.113c90.327,36.286 124.89,107.337 147.193,178.387c50.057,159.462 80.52,255.839 98.423,313l-260,-0c-20.036,-63.956 -48.929,-155.253 -70.509,-224c-39.438,-125.634 -91.19,-162.785 -205.491,-163l-1,-0l-619,0l0,-232l646.012,0c4.119,0.331 8.284,0.5 12.488,0.5c85.271,0 154.5,-69.453 154.5,-155c0,-85.547 -69.229,-155 -154.5,-155c-4.204,0 -8.369,0.169 -12.488,0.5l-878.012,0l0,928Z" style="fill:#09090b;"/></g></svg>